<svg xmlns:dc="http://purl.org/dc/elements/1.1/" xmlns:cc="http://creativecommons.org/ns#" xmlns:rdf="http://www.w3.org/1999/02/22-rdf-syntax-ns#" xmlns:svg="http://www.w3.org/2000/svg" xmlns="http://www.w3.org/2000/svg" viewBox="0 0 64 64" fill="none"><metadata><rdf:RDF><cc:Work><dc:format>image/svg+xml</dc:format><dc:type rdf:resource="http://purl.org/dc/dcmitype/StillImage"/><dc:title>Personas by Draftbit</dc:title><dc:creator><cc:Agent><dc:title>Draftbit - draftbit.com</dc:title></cc:Agent></dc:creator><dc:source>https://personas.draftbit.com/</dc:source><cc:license rdf:resource="https://creativecommons.org/licenses/by/4.0/"/></cc:Work><cc:License rdf:about="https://creativecommons.org/licenses/by/4.0/"><cc:permits rdf:resource="https://creativecommons.org/ns#Reproduction"/><cc:permits rdf:resource="https://creativecommons.org/ns#Distribution"/><cc:permits rdf:resource="https://creativecommons.org/ns#DerivativeWorks"/><cc:requires rdf:resource="https://creativecommons.org/ns#Notice"/><cc:requires rdf:resource="https://creativecommons.org/ns#Attribution"/></cc:License></rdf:RDF></metadata><mask id="avatarsRadiusMask"><rect width="64" height="64" rx="0" ry="0" x="0" y="0" fill="#fff"/></mask><g mask="url(#avatarsRadiusMask)"><path d="M37 46.08V52a5 5 0 0 1-10 0v-5.92A14.035 14.035 0 0 1 18.58 37h-.08a4.5 4.5 0 0 1-.5-8.973V27c0-7.732 6.268-14 14-14s14 6.268 14 14v1.027A4.5 4.5 0 0 1 45.42 37 14.035 14.035 0 0 1 37 46.081Z" fill="rgba(98, 61, 54, 1)"/><mask id="personas-a" style="mask-type:alpha" maskUnits="userSpaceOnUse" x="14" y="13" width="36" height="44"><path d="M37 46.08V52a5 5 0 0 1-10 0v-5.92A14.035 14.035 0 0 1 18.58 37h-.08a4.5 4.5 0 0 1-.5-8.973V27c0-7.732 6.268-14 14-14s14 6.268 14 14v1.027A4.5 4.5 0 0 1 45.42 37 14.035 14.035 0 0 1 37 46.081Z" fill="#fff"/></mask><g mask="url(#personas-a)"><path d="M32 13c7.732 0 14 6.268 14 14v6c0 7.732-6.268 14-14 14s-14-6.268-14-14v-6c0-7.732 6.268-14 14-14Z" fill="#fff" style="mix-blend-mode:overlay" opacity=".364"/></g><g transform="translate(20 24)"><g fill="#1B0640"><path d="M6 6a1.5 1.5 0 1 0 0-3 1.5 1.5 0 0 0 0 3ZM18 6a1.5 1.5 0 1 0 0-3 1.5 1.5 0 0 0 0 3Z"/></g><g opacity=".303" fill="#fff"><path d="M9 2H3v6h6V2ZM21 2h-6v6h6V2Z"/></g><path fill-rule="evenodd" clip-rule="evenodd" d="M11 1.053h2c.655 0 1.214-.2 1.845-.427C15.659.334 16.59 0 18 0c1.667 0 3.333.35 5 1.053l1 .526v1.579l-1 .526v3.158C23 8.586 21.657 10 20 10h-4c-1.657 0-3-1.414-3-3.158V3.158h-2v3.684C11 8.586 9.657 10 8 10H4c-1.657 0-3-1.414-3-3.158V3.684l-1-.526V1.579l1-.526C2.667.35 4.333 0 6 0c1.409 0 2.341.334 3.155.626.63.226 1.19.427 1.845.427Zm-2.757 1.47C7.399 2.228 6.818 2.106 6 2.106c-.995 0-1.993.15-3 .45v4.287c0 .581.448 1.053 1 1.053h4c.552 0 1-.472 1-1.053V2.791c-.209-.07-.447-.155-.757-.267ZM15 2.792c.209-.07.447-.155.758-.267.843-.297 1.424-.419 2.242-.419.995 0 1.993.15 3 .45v4.287c0 .581-.448 1.053-1 1.053h-4c-.552 0-1-.472-1-1.053V2.791Z" fill="#1B0640"/></g><g transform="translate(2 2)"><path opacity=".203" d="M30 17.002c3.881 0 7.548-.376 11 4.218l-1.9 6.492c-.611 1.228-1.636 1.559-2.463.796-2.09-1.929-4.302-2.893-6.637-2.893s-4.547.964-6.637 2.893c-.827.763-1.851.432-2.462-.796L19 21.22c3.452-4.594 7.119-4.218 11-4.218Z" fill="#000"/><path d="M27.292 11.207a3 3 0 0 1 5.416 0c6.1.957 10.809 5.235 11.292 12.71a27.697 27.697 0 0 0-3.96-1.302l-.94.602a2 2 0 0 1-2.463.462C34.547 22.559 32.335 22 30 22s-4.547.56-6.637 1.679a2 2 0 0 1-2.462-.462l-.94-.602A27.697 27.697 0 0 0 16 23.918c.483-7.476 5.192-11.754 11.292-12.711Z" fill="#F29C65"/><path d="M19.96 22.615A27.697 27.697 0 0 0 16 23.918C16.553 15.367 22.632 11 30 11s13.447 4.368 14 12.918a27.697 27.697 0 0 0-3.96-1.303L41 22c-3.452-2.667-7.119-4-11-4-3.881 0-7.548 1.333-11 4l.96.615Z" fill="#000" style="mix-blend-mode:overlay" opacity=".279"/><path d="m39.448 22.994-.349.223a2 2 0 0 1-2.462.462C34.547 22.559 32.335 22 30 22s-4.547.56-6.637 1.679a2 2 0 0 1-2.462-.462l-.349-.223c.866.068 2.183-.479 2.811-.815 2.09-1.12 4.302-1.679 6.637-1.679s4.547.56 6.637 1.679c.628.336 1.945.883 2.811.815Z" fill="#fff" style="mix-blend-mode:lighten" opacity=".203"/></g><g transform="translate(11 44)"><path d="M32 20H10v-8a11 11 0 0 1 6-9.8V4a5 5 0 0 0 10 0V2.2a11 11 0 0 1 6 9.8v8Z" fill="rgba(245, 93, 129, 1)"/><mask id="bodySmall-a" style="mask-type:alpha" maskUnits="userSpaceOnUse" x="10" y="2" width="22" height="18"><path d="M32 20H10v-8a11 11 0 0 1 6-9.8V4a5 5 0 0 0 10 0V2.2a11 11 0 0 1 6 9.8v8Z" fill="#fff"/></mask><g mask="url(#bodySmall-a)"><path opacity=".136" d="M20.617 8.25 22 8l1.207.5L10 15l10.617-6.75Z" fill="#000"/><path d="M21 1h11v47H10V15l13.345-6.578L21 1Z" fill="#fff" style="mix-blend-mode:overlay" opacity=".261"/></g></g><g transform="translate(23 36)"><path d="M7.318 5.728a.75.75 0 0 1 .364-1.456c2.433.609 4.165.32 5.288-.802a.75.75 0 1 1 1.06 1.06c-1.544 1.545-3.812 1.923-6.712 1.198Z" fill="#1B0640"/></g><g><g transform="translate(24 28)"><path d="M4.25 5a.75.75 0 0 1 1.5 0c0 .836.914 1.75 2.25 1.75 1.336 0 2.25-.914 2.25-1.75a.75.75 0 0 1 1.5 0c0 1.664-1.586 3.25-3.75 3.25-2.164 0-3.75-1.586-3.75-3.25Z" fill="#000" style="mix-blend-mode:overlay" opacity=".36"/></g></g><g><g transform="translate(14 26)"><path fill-rule="evenodd" clip-rule="evenodd" d="M13.613 10.673C12.015 11.096 11 12.59 11 14.242v4.663c0 .997.494 1.934 1.377 2.398 1.39.73 3.634 1.697 5.78 1.697 2.14 0 4.26-.963 5.56-1.694.832-.467 1.283-1.369 1.283-2.322v-4.742c0-1.653-1.015-3.146-2.613-3.569C21.073 10.326 19.455 10 18 10c-1.455 0-3.073.326-4.387.673Zm.293 1.41c-.802.222-1.316.967-1.316 1.798v2.67c0 1.065.561 2.057 1.54 2.477 1.084.465 2.585.972 3.974.972 1.385 0 2.847-.504 3.899-.968.956-.422 1.497-1.4 1.497-2.445v-2.69c0-.84-.524-1.59-1.333-1.808-1.073-.29-2.646-.628-4.167-.628-1.512 0-3.048.334-4.094.623Z" fill="rgba(225, 92, 102, 1)"/></g></g></g></svg>